<svg xmlns="http://www.w3.org/2000/svg" width="162" height="129" fill="none"><g stroke="#fff" opacity=".25"><path d="M161.5 40c0 2.521-1.694 5.087-5.181 7.659-3.473 2.562-8.627 5.054-15.312 7.44-13.365 4.77-32.732 9.073-56.698 12.69C36.385 75.025-29.84 79.5-103 79.5s-139.385-4.476-187.309-11.71c-23.966-3.618-43.333-7.922-56.698-12.691-6.685-2.386-11.839-4.878-15.312-7.44-3.487-2.572-5.181-5.138-5.181-7.659s1.694-5.087 5.181-7.659c3.473-2.562 8.627-5.054 15.312-7.44 13.365-4.77 32.732-9.073 56.698-12.69C-242.385 4.975-176.161.5-103 .5-29.84.5 36.385 4.976 84.309 12.21c23.966 3.618 43.333 7.921 56.698 12.691 6.685 2.386 11.839 4.878 15.312 7.44 3.487 2.572 5.181 5.138 5.181 7.659Z"/><path d="M161.5 52c0 2.521-1.694 5.087-5.181 7.659-3.473 2.562-8.627 5.054-15.312 7.44-13.365 4.77-32.732 9.073-56.698 12.69C36.385 87.025-29.84 91.5-103 91.5s-139.385-4.476-187.309-11.71c-23.966-3.618-43.333-7.922-56.698-12.691-6.685-2.386-11.839-4.878-15.312-7.44-3.487-2.572-5.181-5.138-5.181-7.659s1.694-5.087 5.181-7.659c3.473-2.562 8.627-5.054 15.312-7.44 13.365-4.77 32.732-9.073 56.698-12.69C-242.385 16.975-176.161 12.5-103 12.5c73.16 0 139.385 4.476 187.309 11.71 23.966 3.618 43.333 7.922 56.698 12.691 6.685 2.386 11.839 4.878 15.312 7.44 3.487 2.572 5.181 5.138 5.181 7.659Z"/><path d="M161.5 65c0 2.521-1.694 5.088-5.181 7.659-3.473 2.562-8.627 5.054-15.312 7.44-13.365 4.77-32.732 9.073-56.698 12.69C36.385 100.025-29.84 104.5-103 104.5s-139.385-4.476-187.309-11.71c-23.966-3.618-43.333-7.922-56.698-12.691-6.685-2.386-11.839-4.878-15.312-7.44-3.487-2.572-5.181-5.138-5.181-7.659s1.694-5.087 5.181-7.659c3.473-2.562 8.627-5.054 15.312-7.44 13.365-4.77 32.732-9.073 56.698-12.69C-242.385 29.975-176.161 25.5-103 25.5c73.16 0 139.385 4.476 187.309 11.71 23.966 3.618 43.333 7.922 56.698 12.691 6.685 2.386 11.839 4.878 15.312 7.44 3.487 2.572 5.181 5.138 5.181 7.659Z"/><path d="M161.5 77c0 2.521-1.694 5.088-5.181 7.659-3.473 2.562-8.627 5.054-15.312 7.44-13.365 4.77-32.732 9.073-56.698 12.691C36.385 112.024-29.84 116.5-103 116.5s-139.385-4.476-187.309-11.71c-23.966-3.618-43.333-7.922-56.698-12.691-6.685-2.386-11.839-4.878-15.312-7.44-3.487-2.572-5.181-5.138-5.181-7.659s1.694-5.088 5.181-7.659c3.473-2.562 8.627-5.054 15.312-7.44 13.365-4.77 32.732-9.073 56.698-12.69C-242.385 41.975-176.161 37.5-103 37.5c73.16 0 139.385 4.476 187.309 11.71 23.966 3.618 43.333 7.922 56.698 12.691 6.685 2.386 11.839 4.878 15.312 7.44 3.487 2.572 5.181 5.138 5.181 7.659Z"/><path d="M161.5 89c0 2.521-1.694 5.088-5.181 7.659-3.473 2.562-8.627 5.054-15.312 7.44-13.365 4.769-32.732 9.073-56.698 12.691C36.385 124.024-29.84 128.5-103 128.5s-139.385-4.476-187.309-11.71c-23.966-3.618-43.333-7.922-56.698-12.691-6.685-2.386-11.839-4.878-15.312-7.44-3.487-2.572-5.181-5.138-5.181-7.659s1.694-5.088 5.181-7.659c3.473-2.562 8.627-5.054 15.312-7.44 13.365-4.77 32.732-9.073 56.698-12.69C-242.385 53.975-176.161 49.5-103 49.5c73.16 0 139.385 4.476 187.309 11.71 23.966 3.618 43.333 7.922 56.698 12.691 6.685 2.386 11.839 4.878 15.312 7.44 3.487 2.572 5.181 5.138 5.181 7.659Z"/></g></svg>