<svg xmlns="http://www.w3.org/2000/svg" width="325" height="129" fill="none"><g stroke="#fff" opacity=".25"><path d="M324.5 40c0 2.521-1.694 5.087-5.181 7.659-3.473 2.562-8.627 5.054-15.312 7.44-13.365 4.77-32.732 9.073-56.698 12.69C199.385 75.025 133.161 79.5 60 79.5c-73.16 0-139.385-4.476-187.309-11.71-23.966-3.618-43.333-7.922-56.698-12.691-6.685-2.386-11.839-4.878-15.312-7.44-3.487-2.572-5.181-5.138-5.181-7.659s1.694-5.087 5.181-7.659c3.473-2.562 8.627-5.054 15.312-7.44 13.365-4.77 32.732-9.073 56.698-12.69C-79.385 4.975-13.161.5 60 .5s139.385 4.476 187.309 11.71c23.966 3.618 43.333 7.921 56.698 12.691 6.685 2.386 11.839 4.878 15.312 7.44 3.487 2.572 5.181 5.138 5.181 7.659Z"/><path d="M324.5 52c0 2.521-1.694 5.087-5.181 7.659-3.473 2.562-8.627 5.054-15.312 7.44-13.365 4.77-32.732 9.073-56.698 12.69C199.385 87.025 133.161 91.5 60 91.5c-73.16 0-139.385-4.476-187.309-11.71-23.966-3.618-43.333-7.922-56.698-12.691-6.685-2.386-11.839-4.878-15.312-7.44-3.487-2.572-5.181-5.138-5.181-7.659s1.694-5.087 5.181-7.659c3.473-2.562 8.627-5.054 15.312-7.44 13.365-4.77 32.732-9.073 56.698-12.69C-79.385 16.975-13.161 12.5 60 12.5s139.385 4.476 187.309 11.71c23.966 3.618 43.333 7.922 56.698 12.691 6.685 2.386 11.839 4.878 15.312 7.44 3.487 2.572 5.181 5.138 5.181 7.659Z"/><path d="M324.5 65c0 2.521-1.694 5.088-5.181 7.659-3.473 2.562-8.627 5.054-15.312 7.44-13.365 4.77-32.732 9.073-56.698 12.69C199.385 100.025 133.161 104.5 60 104.5c-73.16 0-139.385-4.476-187.309-11.71-23.966-3.618-43.333-7.922-56.698-12.691-6.685-2.386-11.839-4.878-15.312-7.44-3.487-2.572-5.181-5.138-5.181-7.659s1.694-5.087 5.181-7.659c3.473-2.562 8.627-5.054 15.312-7.44 13.365-4.77 32.732-9.073 56.698-12.69C-79.385 29.975-13.161 25.5 60 25.5s139.385 4.476 187.309 11.71c23.966 3.618 43.333 7.922 56.698 12.691 6.685 2.386 11.839 4.878 15.312 7.44 3.487 2.572 5.181 5.138 5.181 7.659Z"/><path d="M324.5 77c0 2.521-1.694 5.088-5.181 7.659-3.473 2.562-8.627 5.054-15.312 7.44-13.365 4.77-32.732 9.073-56.698 12.691C199.385 112.024 133.161 116.5 60 116.5c-73.16 0-139.385-4.476-187.309-11.71-23.966-3.618-43.333-7.922-56.698-12.691-6.685-2.386-11.839-4.878-15.312-7.44-3.487-2.572-5.181-5.138-5.181-7.659s1.694-5.088 5.181-7.659c3.473-2.562 8.627-5.054 15.312-7.44 13.365-4.77 32.732-9.073 56.698-12.69C-79.385 41.975-13.161 37.5 60 37.5s139.385 4.476 187.309 11.71c23.966 3.618 43.333 7.922 56.698 12.691 6.685 2.386 11.839 4.878 15.312 7.44 3.487 2.572 5.181 5.138 5.181 7.659Z"/><path d="M324.5 89c0 2.521-1.694 5.088-5.181 7.659-3.473 2.562-8.627 5.054-15.312 7.44-13.365 4.769-32.732 9.073-56.698 12.691C199.385 124.024 133.161 128.5 60 128.5c-73.16 0-139.385-4.476-187.309-11.71-23.966-3.618-43.333-7.922-56.698-12.691-6.685-2.386-11.839-4.878-15.312-7.44-3.487-2.572-5.181-5.138-5.181-7.659s1.694-5.088 5.181-7.659c3.473-2.562 8.627-5.054 15.312-7.44 13.365-4.77 32.732-9.073 56.698-12.69C-79.385 53.975-13.161 49.5 60 49.5s139.385 4.476 187.309 11.71c23.966 3.618 43.333 7.922 56.698 12.691 6.685 2.386 11.839 4.878 15.312 7.44 3.487 2.572 5.181 5.138 5.181 7.659Z"/></g></svg>