<svg xmlns="http://www.w3.org/2000/svg" width="265" height="129" fill="none"><g stroke="#fff" opacity=".25"><path d="M264.5 40c0 2.521-1.694 5.087-5.181 7.659-3.473 2.562-8.627 5.054-15.312 7.44-13.365 4.77-32.732 9.073-56.698 12.69C139.385 75.025 73.161 79.5 0 79.5c-73.16 0-139.385-4.476-187.309-11.71-23.966-3.618-43.333-7.922-56.698-12.691-6.685-2.386-11.839-4.878-15.312-7.44-3.487-2.572-5.181-5.138-5.181-7.659s1.694-5.087 5.181-7.659c3.473-2.562 8.627-5.054 15.312-7.44 13.365-4.77 32.732-9.073 56.698-12.69C-139.385 4.975-73.161.5 0 .5c73.16 0 139.385 4.476 187.309 11.71 23.966 3.618 43.333 7.921 56.698 12.691 6.685 2.386 11.839 4.878 15.312 7.44 3.487 2.572 5.181 5.138 5.181 7.659Z"/><path d="M264.5 52c0 2.521-1.694 5.087-5.181 7.659-3.473 2.562-8.627 5.054-15.312 7.44-13.365 4.77-32.732 9.073-56.698 12.69C139.385 87.025 73.161 91.5 0 91.5c-73.16 0-139.385-4.476-187.309-11.71-23.966-3.618-43.333-7.922-56.698-12.691-6.685-2.386-11.839-4.878-15.312-7.44-3.487-2.572-5.181-5.138-5.181-7.659s1.694-5.087 5.181-7.659c3.473-2.562 8.627-5.054 15.312-7.44 13.365-4.77 32.732-9.073 56.698-12.69C-139.385 16.975-73.161 12.5 0 12.5c73.16 0 139.385 4.476 187.309 11.71 23.966 3.618 43.333 7.922 56.698 12.691 6.685 2.386 11.839 4.878 15.312 7.44 3.487 2.572 5.181 5.138 5.181 7.659Z"/><path d="M264.5 65c0 2.521-1.694 5.088-5.181 7.659-3.473 2.562-8.627 5.054-15.312 7.44-13.365 4.77-32.732 9.073-56.698 12.69C139.385 100.025 73.161 104.5 0 104.5c-73.16 0-139.385-4.476-187.309-11.71-23.966-3.618-43.333-7.922-56.698-12.691-6.685-2.386-11.839-4.878-15.312-7.44-3.487-2.572-5.181-5.138-5.181-7.659s1.694-5.087 5.181-7.659c3.473-2.562 8.627-5.054 15.312-7.44 13.365-4.77 32.732-9.073 56.698-12.69C-139.385 29.975-73.161 25.5 0 25.5c73.16 0 139.385 4.476 187.309 11.71 23.966 3.618 43.333 7.922 56.698 12.691 6.685 2.386 11.839 4.878 15.312 7.44 3.487 2.572 5.181 5.138 5.181 7.659Z"/><path d="M264.5 77c0 2.521-1.694 5.088-5.181 7.659-3.473 2.562-8.627 5.054-15.312 7.44-13.365 4.77-32.732 9.073-56.698 12.691C139.385 112.024 73.161 116.5 0 116.5c-73.16 0-139.385-4.476-187.309-11.71-23.966-3.618-43.333-7.922-56.698-12.691-6.685-2.386-11.839-4.878-15.312-7.44-3.487-2.572-5.181-5.138-5.181-7.659s1.694-5.088 5.181-7.659c3.473-2.562 8.627-5.054 15.312-7.44 13.365-4.77 32.732-9.073 56.698-12.69C-139.385 41.975-73.161 37.5 0 37.5c73.16 0 139.385 4.476 187.309 11.71 23.966 3.618 43.333 7.922 56.698 12.691 6.685 2.386 11.839 4.878 15.312 7.44 3.487 2.572 5.181 5.138 5.181 7.659Z"/><path d="M264.5 89c0 2.521-1.694 5.088-5.181 7.659-3.473 2.562-8.627 5.054-15.312 7.44-13.365 4.769-32.732 9.073-56.698 12.691C139.385 124.024 73.161 128.5 0 128.5c-73.16 0-139.385-4.476-187.309-11.71-23.966-3.618-43.333-7.922-56.698-12.691-6.685-2.386-11.839-4.878-15.312-7.44-3.487-2.572-5.181-5.138-5.181-7.659s1.694-5.088 5.181-7.659c3.473-2.562 8.627-5.054 15.312-7.44 13.365-4.77 32.732-9.073 56.698-12.69C-139.385 53.975-73.161 49.5 0 49.5c73.16 0 139.385 4.476 187.309 11.71 23.966 3.618 43.333 7.922 56.698 12.691 6.685 2.386 11.839 4.878 15.312 7.44 3.487 2.572 5.181 5.138 5.181 7.659Z"/></g></svg>